Normalized EMG Linear Envelopes
nRows=120
nColumns=4

endheader
time	 med_gas_r	  soleus_r	 tib_ant_r	
2.64819	  0.017359	  0.016157	  0.006316	
2.71976	  0.017502	  0.016675	  0.006528	
2.79133	  0.017253	  0.017666	  0.006350	
2.8629	  0.016623	  0.018350	  0.005960	
2.93448	  0.016004	  0.018481	  0.005563	
3.00605	  0.015701	  0.018346	  0.005218	
3.07762	  0.015996	  0.018104	  0.005001	
3.14919	  0.016501	  0.018085	  0.005042	
3.22077	  0.016355	  0.018301	  0.005233	
3.29234	  0.016313	  0.018337	  0.005472	
3.36391	  0.017068	  0.017917	  0.005655	
3.43548	  0.018597	  0.017461	  0.005817	
3.50706	  0.020409	  0.017284	  0.006042	
3.57863	  0.020730	  0.017476	  0.006230	
3.6502	  0.019620	  0.018372	  0.006323	
3.72177	  0.018121	  0.019850	  0.006368	
3.79335	  0.016494	  0.020791	  0.006512	
3.86492	  0.015095	  0.020597	  0.006665	
3.93649	  0.014579	  0.019906	  0.006584	
4.00806	  0.014915	  0.019605	  0.006119	
4.07964	  0.015536	  0.019970	  0.005507	
4.15121	  0.016396	  0.020319	  0.005073	
4.22278	  0.017201	  0.020124	  0.004987	
4.29435	  0.017435	  0.019304	  0.005215	
4.36593	  0.017437	  0.018213	  0.005687	
4.4375	  0.017196	  0.017671	  0.006192	
4.50907	  0.016675	  0.018324	  0.006460	
4.58065	  0.015858	  0.019780	  0.006107	
4.65222	  0.014930	  0.020855	  0.005037	
4.72379	  0.013912	  0.020293	  0.003737	
4.79536	  0.013885	  0.018802	  0.003431	
4.86694	  0.016747	  0.020383	  0.006728	
4.93851	  0.025376	  0.030675	  0.018217	
5.01008	  0.042305	  0.054849	  0.042498	
5.08165	  0.065947	  0.093955	  0.077443	
5.15323	  0.093725	  0.144269	  0.110116	
5.2248	  0.129205	  0.204847	  0.130093	
5.29637	  0.174859	  0.266313	  0.139933	
5.36794	  0.225049	  0.315238	  0.146255	
5.43952	  0.266575	  0.347515	  0.156106	
5.51109	  0.300795	  0.370272	  0.172873	
5.58266	  0.340345	  0.384658	  0.189434	
5.65423	  0.391552	  0.399129	  0.203027	
5.72581	  0.445426	  0.415557	  0.208703	
5.79738	  0.492810	  0.444963	  0.207130	
5.86895	  0.507790	  0.491549	  0.205250	
5.94052	  0.516293	  0.528242	  0.205829	
6.0121	  0.549916	  0.549236	  0.209383	
6.08367	  0.601033	  0.567630	  0.217480	
6.15524	  0.650171	  0.586870	  0.221177	
6.22681	  0.674658	  0.599509	  0.215567	
6.29839	  0.665792	  0.603205	  0.204166	
6.36996	  0.634096	  0.593541	  0.194389	
6.44153	  0.588690	  0.578257	  0.191323	
6.5131	  0.541848	  0.563767	  0.193715	
6.58468	  0.502325	  0.559675	  0.199948	
6.65625	  0.461541	  0.548964	  0.206275	
6.72782	  0.417626	  0.513609	  0.205870	
6.7994	  0.387223	  0.470229	  0.203454	
6.87097	  0.403853	  0.460916	  0.206057	
6.94254	  0.460036	  0.504081	  0.216116	
7.01411	  0.505636	  0.547595	  0.226559	
7.08569	  0.508578	  0.543766	  0.227225	
7.15726	  0.485309	  0.509436	  0.223918	
7.22883	  0.469268	  0.481407	  0.216175	
7.3004	  0.458654	  0.465738	  0.202424	
7.37198	  0.435896	  0.456173	  0.183462	
7.44355	  0.419173	  0.459856	  0.170881	
7.51512	  0.410201	  0.470662	  0.170059	
7.58669	  0.400249	  0.476388	  0.176157	
7.65827	  0.389099	  0.478724	  0.185190	
7.72984	  0.387225	  0.483026	  0.192138	
7.80141	  0.412401	  0.497960	  0.195390	
7.87298	  0.472419	  0.516273	  0.199221	
7.94456	  0.541554	  0.534164	  0.201528	
8.01613	  0.581800	  0.540088	  0.198830	
8.0877	  0.591825	  0.530819	  0.192839	
8.15927	  0.591756	  0.516396	  0.185327	
8.23085	  0.577751	  0.497560	  0.180446	
8.30242	  0.545960	  0.471203	  0.184878	
8.37399	  0.513109	  0.438920	  0.197106	
8.44556	  0.490277	  0.421934	  0.203728	
8.51714	  0.477577	  0.432606	  0.196722	
8.58871	  0.473123	  0.446707	  0.186597	
8.66028	  0.470234	  0.443411	  0.178813	
8.73185	  0.469410	  0.437493	  0.173272	
8.80343	  0.482915	  0.443451	  0.170298	
8.875	  0.515016	  0.444413	  0.171163	
8.94657	  0.563058	  0.445235	  0.179289	
9.01815	  0.623228	  0.464795	  0.190872	
9.08972	  0.669416	  0.515660	  0.202813	
9.16129	  0.681598	  0.581924	  0.210357	
9.23286	  0.688614	  0.632399	  0.207330	
9.30444	  0.691966	  0.643355	  0.196084	
9.37601	  0.681282	  0.618905	  0.185836	
9.44758	  0.667287	  0.590686	  0.180755	
9.51915	  0.653722	  0.575888	  0.182740	
9.59073	  0.623008	  0.556051	  0.186959	
9.6623	  0.595018	  0.534149	  0.192181	
9.73387	  0.573089	  0.517292	  0.193733	
9.80544	  0.559780	  0.509386	  0.189020	
9.87702	  0.550341	  0.504340	  0.178238	
9.94859	  0.540473	  0.511785	  0.170417	
10.0202	  0.523831	  0.521542	  0.165981	
10.0917	  0.490499	  0.505318	  0.158318	
10.1633	  0.428983	  0.442666	  0.145445	
10.2349	  0.340342	  0.346688	  0.127526	
10.3065	  0.250911	  0.260253	  0.111874	
10.378	  0.188341	  0.199591	  0.103894	
10.4496	  0.151769	  0.164490	  0.099339	
10.5212	  0.135200	  0.148722	  0.093822	
10.5927	  0.127333	  0.141917	  0.084096	
10.6643	  0.112730	  0.131534	  0.073217	
10.7359	  0.087622	  0.109908	  0.065368	
10.8075	  0.058970	  0.082262	  0.062072	
10.879	  0.038062	  0.056785	  0.064656	
10.9506	  0.026765	  0.040600	  0.069311	
11.0222	  0.020564	  0.032365	  0.071059	
11.0937	  0.016190	  0.028440	  0.067238	
11.1653	  0.014713	  0.027098	  0.056984	
